# xmcd
#
# Track frame offsets: 
#        150
#        22237
#        40057
#        58305
#        78205
#        101225
#        117640
#        134362
#        156605
#        177240
#        198855
#        214705
#
# Disc length: 3213 seconds
#
# Revision: 0
# Processed by: cddbd v1.5.1PL0 Copyright (c) Steve Scherf et al.
# Submitted via: ExactAudioCopy v0.90a11
#
DISCID=b20c8b0c
DTITLE=de Lang, Andre - Educate Your Soul
DYEAR=1900
DGENRE=
TTITLE0=Could You Be (My Favourite Girl)
TTITLE1=Finally
TTITLE2=Sunshine
TTITLE3=For Your Love
TTITLE4=Where's a Question There's an Answer
TTITLE5=Same Ol' Story
TTITLE6=Angel Eyes
TTITLE7=Educate Your Soul
TTITLE8=Beautiful Song, The
TTITLE9=Thula Mama
TTITLE10=My Heart Goes (Aj Aj Aj)
TTITLE11=Sunshine (Markus Enochson Remix)
EXTD=
EXTT0=
EXTT1=
EXTT2=
EXTT3=
EXTT4=
EXTT5=
EXTT6=
EXTT7=
EXTT8=
EXTT9=
EXTT10=
EXTT11=
PLAYORDER=
